<svg id="Layer_1" data-name="Layer 1" xmlns="http://www.w3.org/2000/svg" viewBox="0 0 1000 1000"><defs><style>.cls-1{fill:none;stroke-linecap:round;stroke-linejoin:round;}.cls-1,.cls-2{stroke:#fff;stroke-width:3px;}.cls-2{fill:#fff;stroke-miterlimit:10;}</style></defs><title>Artboard 1</title><line class="cls-1" x1="654.4" y1="93.8" x2="639.1" y2="137.2"/><line class="cls-1" x1="666.7" y1="56" x2="659.5" y2="76.7"/><line class="cls-1" x1="813.6" y1="143.1" x2="762.3" y2="203.4"/><line class="cls-1" x1="851.4" y1="311" x2="868.6" y2="300.9"/><line class="cls-1" x1="881.5" y1="293.4" x2="918.4" y2="271.8"/><line class="cls-1" x1="894" y1="447.2" x2="974" y2="435.7"/><line class="cls-1" x1="27.2" y1="427.9" x2="107.2" y2="441.8"/><line class="cls-1" x1="117.2" y1="287.3" x2="159.8" y2="312.9"/><line class="cls-1" x1="83.9" y1="267.8" x2="104.3" y2="280.1"/><line class="cls-1" x1="189" y1="140.9" x2="240.2" y2="201.9"/><line class="cls-1" x1="335.4" y1="55.2" x2="353.1" y2="103.8"/><line class="cls-1" x1="357.8" y1="116.6" x2="363.5" y2="132.2"/><line class="cls-1" x1="500" y1="26.2" x2="500" y2="99.2"/><path class="cls-2" d="M455.3,464.2c0-12.3,0-24.5-.1-36.8a6.14,6.14,0,0,1,3.1-5.3c3.9-2.1,7.9-4.3,11.8-6.4V460L492,448.3a5.92,5.92,0,0,0,3.2-5.3q0-50.85-.1-101.7l-62.2,33.4a6.11,6.11,0,0,0-3.2,5.3l-.3,101.6,22.5-12a6.11,6.11,0,0,0,3.4-5.4Zm3.2-88.2c4-2.1,7.9-4.2,11.9-6.3v26.8a6,6,0,0,1-3.3,5.3l-11.7,6c0-8.9,0-17.7-.1-26.6a6,6,0,0,1,3.2-5.2ZM350.3,542.9v70.6c8.5,4.6,16.9,9.2,25.4,13.8a3,3,0,0,0,4.4-2.6V574.6c13.8,7.4,27.5,14.7,41.3,22.1,3.9-2.3,5-3,8.8-5.3.1-31.8.1-63.6.2-95.4l-76.5,40.8a7,7,0,0,0-3.6,6.1Zm49.2-10.3a4,4,0,0,1,5.9,3.5c-.1,10.5-.1,21.1-.2,31.6-8.3-4.4-16.5-8.8-24.8-13.2V542.8c6.3-3.3,12.7-6.7,19.1-10.2ZM570.3,446c-8.4-4.4-16.7-8.8-25.1-13.3,0,5,.1,10,.1,15-4.2-2.2-8.5-4.5-12.7-6.7a4,4,0,0,1-2.1-3.5l-.1-57.6a3.06,3.06,0,0,1,4.4-2.7c3.5,1.8,7.1,3.6,10.6,5.5-.1,4.9-.2,9.8-.2,14.8l25.1,13.6V376c-20.2-10.7-40.3-21.5-60.5-32.2a3,3,0,0,0-4.4,2.7c0,33.3.1,66.6.1,99.9,20.1,10.9,40.3,21.7,60.4,32.6a3,3,0,0,0,4.4-2.6V446ZM377.1,509.6a5.92,5.92,0,0,0,3.2-5.3V466.5a6,6,0,0,1,3.2-5.3l6.8-3.6.1,44.9,27-14.4a5.92,5.92,0,0,0,3.2-5.3c-.1-33.7-.2-67.5-.2-101.2-9,4.8-17.9,9.6-26.9,14.4a5.92,5.92,0,0,0-3.2,5.3v37.8a5.92,5.92,0,0,1-3.2,5.3l-6.6,3.5c0-15,0-30,.1-45-9,4.8-17.9,9.5-26.9,14.3a5.92,5.92,0,0,0-3.2,5.3l.1,101.3c8.7-4.8,17.6-9.5,26.5-14.2ZM650.3,419c-8.5-4.6-17-9.1-25.5-13.7a3,3,0,0,0-4.4,2.7c0,11.7.1,23.4.1,35a3,3,0,0,1-4.5,2.6l-5.7-3.2.1-44.8c-8.6-4.6-17.1-9.2-25.7-13.8a3,3,0,0,0-4.4,2.6q-.15,50-.2,99.9c8.6,4.6,17.1,9.2,25.7,13.8a3,3,0,0,0,4.4-2.6V462.4a3,3,0,0,1,4.4-2.6c2,1.1,4.1,2.2,6.1,3.3l-.3,44.7c8.5,4.5,17,9,25.5,13.6a3,3,0,0,0,4.4-2.7l-.1-40.7a7,7,0,0,0-3.6-6.1L635.9,466l14.5-7.8c0-17.6,0-21.3-.1-39.2Zm-30,105.3v70c-5,2.7-10,5.3-15,8l.1-92.8-27.6-14.7a5,5,0,0,0-7.4,4.4l-.3,157c25.5-13.5,50.9-27.1,76.4-40.6a7,7,0,0,0,3.7-6.2V533.7c-8.1-4.3-16.1-8.6-24.2-12.9a3.83,3.83,0,0,0-5.7,3.5ZM520,499.7l.2,30.9a6.81,6.81,0,0,0,3.7,6.1l31.2,16.8V492.2a7.07,7.07,0,0,0-3.7-6.2l-47.8-25.7a7.21,7.21,0,0,0-6.7,0c-16,8.7-32.1,17.4-48.1,26.2a7,7,0,0,0-3.7,6.2l.2,72.7a6.81,6.81,0,0,0,3.7,6.1c25.8,13.9,71.1,38.1,71.1,38.1l.2,38.2-20.1,11L480.6,648l-.1-30.4a7.07,7.07,0,0,0-3.7-6.2l-31.6-17s0,41.5.1,65.7a6.81,6.81,0,0,0,3.7,6.1c16,8.7,32,17.3,48,26a7,7,0,0,0,6.6,0c16-8.6,32.1-17.2,48.1-25.8a7,7,0,0,0,3.7-6.2c0-22.7-.1-45.4-.1-68.1a7,7,0,0,0-3.7-6.2l-71.1-37.8c-.1-16.1-.1-32.2-.2-48.3l20.1-11.7c8.7,5.2,10.9,6.5,19.6,11.6Z"/><path class="cls-1" d="M500,298.3c119.1,0,215.7,96.6,215.7,215.7S619.1,729.7,500,729.7,284.3,633.1,284.3,514,380.9,298.3,500,298.3Zm0-158v158m66.3-152.6L541.7,298.3m88.5-135.5L577.4,312.6M688,190.7,609.9,327.4m130.6-98.3L638.8,348.9m147.3-72.4L664.9,375m23.6,31.1,135.8-79.3m-121,114.9,150.4-57.6M711.9,473.6,867.8,451M715.7,510H844.9M713.2,550.7l127.2,20M703.2,586.6l121,43.8m-133.5-8.8,108,62M668.1,653.7l95.6,77.6M641,680.6l83.7,94.9M606.5,701.6l69.1,109.6M570.7,718.9l41.4,121.5M524.4,733.1l9.9,127M477.2,728.5,457.3,856.7m-75.9-18.1,51.1-119.7M325,810l67.6-105.7m-113.1,69,79.3-89.4M240.7,731.6l90.5-76.2M206.4,682.7l105.5-63m-131.6,10,116.2-41.9M166.8,569.5l117.5-17.8M159.1,513H284.3M137.5,447.2,288,473.3M149.6,383.6l145.9,52.7M179.6,324.8l132.6,79.8M217.7,274,335.5,374.4M261.3,227.1l101,120.3M314.1,189.5l76.8,133.7M375.2,164.3l51.5,140.8M437,146.3l23.9,150.9m-301.4,182C141.8,688.5,310.8,865.4,507.4,862.3c192.1-3,353.6-177,337-381.5M32.5,479.2C18,755.2,243,985.3,507.5,981.1c255.2-4,468.7-224.7,460.7-491m-869,56.2,60.3-67.1m-127-1,66.7,68.1m13,79,47.6-76.7M38,572.5l74.2,52.8m778,0-46-74.1m119.3,22-73.3,52.1m12.6-76.6,65.4-59.6m-123.3-9.7,57.9,69.3M683.1,622.8V410.9l-183.5-106-183.5,106V622.8L499.6,728.7Z"/><path class="cls-2" d="M170.5,769.8c-4.8,3.3-8.1,5.6-9.7,6.7q-9.6-13.95-12.9-18.6-3.6-5.1-4.8-6.9c-.8-1.2-1.4-2-1.6-2.3,12.1-8.4,22.3-15.4,30.3-21s14.1-9.8,18.2-12.6c3.2,4.7,5.4,7.7,6.4,9.3q-29.1,20.1-38.8,26.9c5.8,8.2,10.1,14.4,12.9,18.5Zm41.8-3.9c-4,3.4-6.9,6-9,7.8,5,5.7,8.7,10,11.1,12.8-4,3.4-6.9,6-8.9,7.7-5-5.7-8.7-10-11.1-12.8-4,3.4-6.9,6-9,7.8,6.6,7.6,11.5,13.3,14.8,17.1-4,3.4-6.9,6-8.9,7.7-6.6-7.6-11.5-13.3-14.8-17.1s-5.7-6.6-7.4-8.5c4-3.4,6.9-6,8.9-7.7s3.8-3.3,5.3-4.6,2.7-2.4,3.7-3.2c4.5-3.9,7.4-6.5,8.9-7.7l9-7.8,8.9-7.7c3.7,4.3,6.2,7.1,7.4,8.5,7.4,8.6,12.4,14.3,14.8,17.1l-8.9,7.7C220.6,775.4,215.7,769.7,212.3,765.9Zm13.7,82c-1.8-1.7-4.6-4.3-8.3-7.7,3.6-3.8,8.9-9.6,16.1-17.3-1.8-1.7-4.6-4.3-8.3-7.7-3.6,3.8-8.9,9.6-16.1,17.3-1.8-1.7-4.6-4.3-8.3-7.7,3-3.3,7.5-8.1,13.6-14.7,2.5-2.7,5.6-6.1,9.4-10.1s8.2-8.8,13.2-14.2a5.68,5.68,0,0,1,4.1-1.9,5.39,5.39,0,0,1,4.1,1.5c3.7,3.4,9.2,8.5,16.6,15.4a5.71,5.71,0,0,1,1.8,3.9,6,6,0,0,1-1.6,4.1c-8.2,8.7-20.3,21.8-36.3,39.1Zm15.8-33.7a16.68,16.68,0,0,1,1.4-1.5q2.25-2.4,6.6-7.2c-1.8-1.7-4.6-4.3-8.3-7.7q-2.7,2.85-8.1,8.7c1.9,1.8,4.7,4.3,8.4,7.7Zm35.4,36.5a5.51,5.51,0,0,1,2.2,3.8,5.72,5.72,0,0,1-1.2,4.3c-3.1,4.2-7.8,10.5-14,19-2-1.5-5-3.7-9.1-6.7,3.1-4.2,7.8-10.5,14-19-2-1.5-5.1-3.7-9.1-6.7-3.1,4.2-7.8,10.5-14,19-2-1.5-5-3.7-9.1-6.7,3.1-4.2,7.8-10.5,14-19,1.6-2.1,3.9-5.3,7-9.5,1.6-2.1,3.5-4.7,5.9-7.9s5.1-6.9,8.2-11.1c2,1.5,5,3.7,9.1,6.7,3,2.2,7.6,5.6,13.7,10.1a5.3,5.3,0,0,1,2.2,3.7,5.6,5.6,0,0,1-1.2,4.3c-2.3,3.2-5.9,7.9-10.6,14.3a6,6,0,0,1-3.8,2.4,5.17,5.17,0,0,1-4.2-1Zm-1.1-8.1c.3-.4.7-.9,1.2-1.7,1.3-1.8,3.2-4.4,5.8-7.9-2-1.5-5.1-3.7-9.1-6.7-1.6,2.1-3.9,5.3-7,9.5,2,1.6,5,3.9,9.1,6.8ZM332,857.2c-5.9,10.3-14.8,25.6-26.6,46.1-2.2-1.2-5.4-3.1-9.8-5.6,5.3-9.1,13.1-22.8,23.6-40.9-2.2-1.2-5.4-3.1-9.8-5.7-5.3,9.1-13.1,22.8-23.6,40.9-2.2-1.2-5.4-3.1-9.8-5.6q5-8.55,12.3-21.3c4.9-8.5,10.6-18.5,17.2-29.8,2.2,1.2,5.4,3.1,9.8,5.6,3.3,1.9,8.2,4.7,14.7,8.5a5.68,5.68,0,0,1,2,7.8ZM320.9,903q1.2-2.55,1.8-3.9l10.2,4.8c-2.5,5.3-4.1,8.9-5,10.7l-10.2-4.8C319,907,320,904.8,320.9,903Zm99.6,12a5.68,5.68,0,0,1,3.5,2.6,5.57,5.57,0,0,1,.6,4.4c-.9,3.8-2.3,9.6-4.1,17.2a6.05,6.05,0,0,1-2.5,3.7,5.16,5.16,0,0,1-4.3.8c-3.7-.9-9.2-2.2-16.6-3.9-2.4-.6-6.1-1.4-11-2.6.6-2.5,1.5-6.4,2.7-11.5.6-2.6,1.5-6.4,2.7-11.5.6-2.5,1.5-6.4,2.7-11.5.3-1.3.7-2.9,1.1-4.8s1-4.2,1.6-6.7,1.5-6.4,2.7-11.5c2.4.6,6.1,1.4,11,2.6,3.7.9,9.2,2.2,16.6,3.9a5.42,5.42,0,0,1,3.5,2.6,5.69,5.69,0,0,1,.6,4.4c-.9,3.8-2.3,9.6-4.1,17.3a6.05,6.05,0,0,1-2.5,3.7,5.16,5.16,0,0,1-4.2.8Zm-20.6,13.4c2.5.6,6.2,1.5,11,2.6.1-.5.3-1.1.5-2,.5-2.1,1.3-5.3,2.2-9.5-2.4-.6-6.1-1.4-11-2.6C402,919.4,401.1,923.2,399.9,928.4Zm5.4-23c2.5.6,6.2,1.5,11,2.6.1-.5.3-1.1.5-2,.5-2.1,1.3-5.3,2.2-9.5-2.4-.6-6.1-1.4-11-2.6C407.5,896.4,406.6,900.2,405.3,905.4Zm68.8-11.9c-1.4,11.7-3.4,29.3-6.1,52.7a6.06,6.06,0,0,1-2.1,4,5.45,5.45,0,0,1-4.2,1.3c-5-.6-12.5-1.4-22.5-2.6a5.37,5.37,0,0,1-3.8-2.2,5.49,5.49,0,0,1-1.2-4.3c.7-5.8,1.5-13.2,2.5-22s2.2-19.1,3.5-30.8c2.5.3,6.2.7,11.2,1.3-1.2,10.4-3,26-5.4,46.9,2.5.3,6.3.7,11.3,1.3,1.2-10.4,3-26.1,5.4-46.9,2.7.3,6.4.7,11.4,1.3Zm8.7.6c1.9.1,5.6.2,11.3.3-.2,7.4-.6,22.1-1.2,44.3-.1,2.5-.2,7.4-.4,14.7-1.8-.1-5.6-.2-11.3-.3.2-6.6.4-14.8.7-24.6S482.5,907.2,482.8,894.1Zm56.7,46.3c.3,5.2.5,9.1.7,11.8-11.3.7-18.8,1.1-22.6,1.3-4.2.2-7,.4-8.4.5s-2.4.1-2.8.2c-.9-14.8-1.6-27-2.2-36.9s-1-17.2-1.3-22.1c5.7-.3,9.4-.6,11.2-.7,1.4,23.6,2.3,39.3,2.8,47.2C527,941.1,534.5,940.7,539.5,940.4ZM579,892.8c1.8,10.4,4.6,25.9,8.2,46.5a5.67,5.67,0,0,1-.9,4.4,4.93,4.93,0,0,1-3.6,2.4c-3.7.7-9.3,1.6-16.7,3-1.2.2-3,.5-5.5,1-1.3.2-3.1.6-5.6,1-1.1-6.5-2.6-14.5-4.3-24.2s-3.7-21-6-33.9c2.2-.4,5.4-1,9.7-1.7.3-.1.8-.1,1.4-.2,3.7-.7,9.3-1.6,16.7-3a5.35,5.35,0,0,1,4.2,1,5,5,0,0,1,2.4,3.7Zm-15,44.7c2.5-.4,6.2-1.1,11.2-2-.1-.5-.2-1.3-.4-2.3-1.3-7.3-3.2-18.1-5.8-32.6-2.5.4-6.2,1.1-11.2,2,.7,3.9,1.7,9.7,3.1,17.4.7,3.9,1.7,9.7,3.1,17.5Zm34.7-2.3c-.5-1.9-.9-3.2-1.1-4.2,5.5-1.5,9.1-2.4,10.9-2.9l3,11.4c-5.4,1.5-9.1,2.4-10.9,2.9C599.9,939.5,599.3,937.1,598.7,935.2Zm73.7-62.9c-.6-1.2-1.5-3-2.7-5.3-2.2,1.1-5.6,2.8-10.1,5.1,1.2,2.3,2.9,5.9,5.3,10.6l15.2-7.6a5.37,5.37,0,0,1,4.3-.3,6.08,6.08,0,0,1,3.3,3c2.4,4.7,5.9,11.8,10.6,21.1a5.7,5.7,0,0,1,.4,4.4,5.34,5.34,0,0,1-2.8,3.4c-4.5,2.3-11.3,5.7-20.2,10.1a5.21,5.21,0,0,1-4.4.2,5.87,5.87,0,0,1-3.4-3c-1.2-2.3-2.9-5.8-5.3-10.5,2.2-1.1,5.6-2.8,10.1-5.1.6,1.1,1.5,2.9,2.7,5.3,2.3-1.1,5.7-2.8,10.1-5.1-1.2-2.4-3-5.9-5.3-10.6-3.4,1.7-8.4,4.2-15.1,7.6a5.4,5.4,0,0,1-4.3.3,5.92,5.92,0,0,1-3.4-3c-1.2-2.3-2.6-5.3-4.4-8.8s-3.8-7.6-6.2-12.3a6.32,6.32,0,0,1-.4-4.5,5.41,5.41,0,0,1,2.8-3.3c4.5-2.2,11.2-5.6,20.2-10.1a5.37,5.37,0,0,1,4.3-.3,6.08,6.08,0,0,1,3.3,3c1.2,2.4,3,5.9,5.3,10.6-2,1.1-5.4,2.8-9.9,5.1Zm37.7-42.9c5.7,8.8,10,15.3,12.9,19.8s5,7.7,6.4,9.8q8.7,13.2,12.9,19.8c-4.2,2.7-7.3,4.8-9.4,6.2q-8.7-13.2-12.9-19.8c-4.2,2.7-7.3,4.8-9.5,6.2q8.7,13.2,12.9,19.8c-4.2,2.7-7.3,4.8-9.4,6.2-2.9-4.4-5.4-8.2-7.5-11.5s-4-6.1-5.4-8.2c-3.2-5-5.4-8.2-6.4-9.8q-9.75-14.85-12.9-19.8c4.7-3.1,7.9-5.2,9.4-6.2q9.75,14.85,12.9,19.8c4.7-3.1,7.9-5.2,9.5-6.2q-9.75-14.85-12.9-19.8C704.9,832.8,708,830.8,710.1,829.4ZM780.7,849q-2.85,2.4-8.7,7.2c-3.3-4-8.4-10.1-15.1-18.2q-2.85,2.4-8.7,7.2c3.3,4,8.4,10.1,15.1,18.2q-2.85,2.4-8.7,7.2c-2.8-3.4-7.1-8.6-12.8-15.4-2.3-2.8-5.3-6.4-8.8-10.6s-7.7-9.2-12.4-14.9a6,6,0,0,1-1.4-4.3,5.32,5.32,0,0,1,2-3.8q5.85-4.8,17.4-14.4a5.15,5.15,0,0,1,4.1-1.2,5.57,5.57,0,0,1,3.9,2.2c7.8,9,19.1,22.6,34.1,40.8Zm-31.2-20.1c-.3-.4-.7-.9-1.3-1.6-1.4-1.7-3.5-4.2-6.2-7.5q-2.85,2.4-8.7,7.2c1.7,2,4.2,5.1,7.6,9.1,1.8-1.6,4.7-4,8.6-7.2Zm40.8-30.2a5.35,5.35,0,0,1,4-1.6,5.83,5.83,0,0,1,4.1,1.7c3.8,3.6,9.4,9.1,17,16.4-1.7,1.8-4.4,4.5-7.8,8.1-3.8-3.6-9.4-9.1-17-16.4-1.7,1.8-4.4,4.5-7.9,8.1,3.8,3.6,9.4,9.1,17,16.4-1.7,1.8-4.4,4.5-7.8,8.1-3.8-3.6-9.4-9.1-17-16.4-1.9-1.8-4.7-4.5-8.5-8.2-1.9-1.8-4.2-4.1-7.1-6.8s-6.1-5.9-9.9-9.6q2.55-2.7,7.8-8.1c2.6-2.7,6.6-6.8,11.8-12.2a5.44,5.44,0,0,1,4-1.7,5.66,5.66,0,0,1,4.1,1.7c2.8,2.7,7.1,6.9,12.8,12.4a5.86,5.86,0,0,1,1.9,4.1,5.42,5.42,0,0,1-1.5,4Zm-8.2,0c-.3-.3-.8-.8-1.5-1.4-1.6-1.5-3.9-3.8-7-6.8-1.7,1.8-4.4,4.5-7.9,8.1,1.9,1.8,4.7,4.6,8.5,8.2C776,805,778.7,802.3,782.1,798.7Zm12.9-32c4.1,3.2,7.3,5.6,9.4,7.3,4.6-6,8.1-10.4,10.4-13.4q6.15,4.8,9.3,7.2c-4.6,6-8.1,10.4-10.4,13.4,4.1,3.2,7.3,5.6,9.4,7.3,6.2-7.9,10.8-13.9,13.9-17.8q6.15,4.8,9.3,7.2c-6.1,7.9-10.8,13.9-13.9,17.8s-5.4,6.9-6.9,8.9q-6.15-4.8-9.3-7.2c-2.1-1.6-3.9-3.1-5.5-4.3s-2.8-2.2-3.9-3q-7-5.4-9.3-7.2c-4.7-3.6-7.8-6.1-9.4-7.3q-6.9-5.4-9.3-7.2c3.5-4.5,5.8-7.4,6.9-8.9,7-9,11.6-14.9,13.9-17.8q6.9,5.4,9.3,7.2C802.7,756.8,798.1,762.7,795,766.7Zm52.9-4.1c-1.6-1.1-2.8-1.8-3.6-2.4,3.1-4.7,5.2-7.9,6.2-9.4,4.9,3.2,8.2,5.4,9.8,6.4-3.1,4.7-5.1,7.8-6.2,9.4C851.7,765,849.6,763.7,847.9,762.6Z"/></svg>